<?xml version="1.0" encoding="utf-8"?>
<!DOCTYPE svg PUBLIC "-//W3C//DTD SVG 1.1//EN" "http://www.w3.org/Graphics/SVG/1.1/DTD/svg11.dtd">
<svg version="1.1" baseProfile="full"
 xmlns="http://www.w3.org/2000/svg"
 xmlns:xlink="http://www.w3.org/1999/xlink"
 xmlns:ev="http://www.w3.org/2001/xml-events" 
  height="23px" 
  width="37px" 
>
<path fill="rgb( 255, 255, 255 )"
 d="M29.028,12.023 L29.028,22.004 L26.962,22.004 L26.962,0.98899999999998 L29.028,0.98899999999998 L29.028,10.001 L36.069,10.001 L36.069,12.023 L29.028,12.023 ZM21.95,20.034 L15.144,20.034 C14.487,20.034 13.954,19.511 13.954,18.867 L13.954,4.15800000000002 C13.954,3.51299999999998 14.487,2.99099999999999 15.144,2.99099999999999 L21.95,2.99099999999999 C22.607,2.99099999999999 23.14,3.51299999999998 23.14,4.15800000000002 L23.14,18.867 C23.14,19.511 22.607,20.034 21.95,20.034 ZM20.979,4.98200000000003 L16.005,4.98200000000003 L16.005,17.98 L20.979,17.98 L20.979,4.98200000000003 ZM7.95699999999999,12.008 L0.99299999999999,12.008 L0.99299999999999,10.001 L7.95699999999999,10.001 L7.95699999999999,0.98899999999998 L9.99199999999999,0.98899999999998 L9.99199999999999,22.004 L7.95699999999999,22.004 L7.95699999999999,12.008 Z "/>
</svg>
