<?xml version="1.0" encoding="utf-8"?>
<!DOCTYPE svg PUBLIC "-//W3C//DTD SVG 1.1//EN" "http://www.w3.org/Graphics/SVG/1.1/DTD/svg11.dtd">
<svg version="1.1" baseProfile="full"
 xmlns="http://www.w3.org/2000/svg"
 xmlns:xlink="http://www.w3.org/1999/xlink"
 xmlns:ev="http://www.w3.org/2001/xml-events" 
  height="28px" 
  width="16px" 
>
<path fill="rgb( 255, 255, 255 )"
 d="M9.00399999999999,27.996 L9.00399999999999,25.029 L13.976,25.029 C14.542,25.029 15.001,24.571 15.001,24.0069999999999 L15.001,4.04499999999996 C15.001,3.48000000000002 14.542,3.02300000000002 13.976,3.02300000000002 L9.00399999999999,3.02300000000002 L9.00399999999999,0 L6.953,0 L6.953,3.02300000000002 L1.96799999999999,3.02300000000002 C1.40100000000001,3.02300000000002 0.94200000000001,3.48000000000002 0.94200000000001,4.04499999999996 L0.94200000000001,24.0069999999999 C0.94200000000001,24.571 1.40100000000001,25.029 1.96799999999999,25.029 L6.953,25.029 L6.953,27.996 L9.00399999999999,27.996 ZM12.95,5.06700000000001 L12.95,22.985 L9.00399999999999,22.985 L9.00399999999999,5.06700000000001 L12.95,5.06700000000001 ZM2.99299999999999,22.985 L2.99299999999999,5.06700000000001 L6.953,5.06700000000001 L6.953,22.985 L2.99299999999999,22.985 Z "/>
</svg>
