<?xml version="1.0" encoding="utf-8"?>
<!DOCTYPE svg PUBLIC "-//W3C//DTD SVG 1.1//EN" "http://www.w3.org/Graphics/SVG/1.1/DTD/svg11.dtd">
<svg version="1.1" baseProfile="full"
 xmlns="http://www.w3.org/2000/svg"
 xmlns:xlink="http://www.w3.org/1999/xlink"
 xmlns:ev="http://www.w3.org/2001/xml-events" 
  height="14px" 
  width="34px" 
>
<path fill="rgb( 255, 255, 255 )"
 d="M24.9000000000001,13.024 C24.4929999999999,13.024 24.1220000000001,12.779 23.9590000000001,12.397 L20.518,4.85000000000002 L17.7539999999999,12.329 C17.6120000000001,12.742 17.2280000000001,13.02 16.796,13.024 C16.7929999999999,13.024 16.79,13.024 16.787,13.024 C16.3579999999999,13.024 15.9739999999999,12.754 15.825,12.346 L12.96,5.02599999999995 L10.1759999999999,12.338 C10.0329999999999,12.742 9.65699999999993,13.015 9.23199999999997,13.024 C8.80600000000004,13.033 8.42100000000005,12.775 8.26199999999994,12.376 L5.98900000000003,6.99400000000003 L0.99399999999991,6.99400000000003 L0.99399999999991,4.92600000000004 L6.80500000000006,4.92600000000004 C7.22299999999996,4.92600000000004 7.59799999999996,5.18200000000002 7.75500000000011,5.57299999999998 L9.154,9.13999999999999 L11.9829999999999,1.64099999999996 C12.1279999999999,1.23099999999999 12.5119999999999,0.95699999999999 12.943,0.95500000000004 C12.944,0.95500000000004 12.9459999999999,0.95500000000004 12.9469999999999,0.95500000000004 C13.376,0.95500000000004 13.76,1.22500000000002 13.9079999999999,1.63199999999995 L16.76,8.97799999999995 L19.451,1.64999999999998 C19.5899999999999,1.24599999999998 19.9590000000001,0.97000000000003 20.3820000000001,0.95500000000004 C20.8050000000001,0.94000000000005 21.192,1.18899999999996 21.3589999999999,1.58100000000002 L24.75,9.07299999999998 L25.7909999999999,5.65099999999995 C25.925,5.21900000000005 26.3199999999999,4.92600000000004 26.768,4.92600000000004 L33.0170000000001,4.95399999999995 L33.0170000000001,6.99400000000003 L27.614,6.99400000000003 L25.877,12.298 C25.75,12.712 25.3810000000001,13 24.953,13.023 C24.9349999999999,13.024 24.9179999999999,13.024 24.9000000000001,13.024 Z "/>
</svg>
