<?xml version="1.0" encoding="utf-8"?>
<!DOCTYPE svg PUBLIC "-//W3C//DTD SVG 1.1//EN" "http://www.w3.org/Graphics/SVG/1.1/DTD/svg11.dtd">
<svg version="1.1" baseProfile="full"
 xmlns="http://www.w3.org/2000/svg"
 xmlns:xlink="http://www.w3.org/1999/xlink"
 xmlns:ev="http://www.w3.org/2001/xml-events" 
  height="18px" 
  width="32px" 
>
<path fill="rgb( 255, 255, 255 )"
 d="M25.027,7.977 L25.027,0.97900000000001 L22.999,0.97900000000001 L22.999,7.977 L21.002,7.977 L21.002,0.97900000000001 L18.9749999999999,0.97900000000001 L18.9749999999999,7.636 L7.53199999999993,1.10599999999999 C7.20900000000006,0.90799999999999 6.80500000000006,0.90000000000001 6.47399999999993,1.084 C6.14400000000001,1.267 5.93900000000008,1.613 5.93900000000008,1.99000000000001 L5.93900000000008,7.977 L0.99399999999991,7.977 L0.99399999999991,9.99100000000001 L5.93900000000008,9.99100000000001 L5.93900000000008,16.009 C5.93900000000008,16.385 6.14400000000001,16.732 6.47399999999993,16.916 C6.63300000000004,17.003 6.80799999999999,17.047 6.98399999999992,17.047 C7.17399999999998,17.047 7.36400000000003,16.996 7.53199999999993,16.893 L18.9749999999999,10.394 L18.9749999999999,17.989 L21.002,17.989 L21.002,9.99100000000001 L22.999,9.99100000000001 L22.999,17.989 L25.027,17.989 L25.027,9.99100000000001 L31.0419999999999,9.99100000000001 L31.0419999999999,7.977 L25.027,7.977 ZM8.029,14.152 L8.029,3.84700000000001 L17.1489999999999,9.078 L8.029,14.152 Z "/>
</svg>
