<?xml version="1.0" encoding="utf-8"?>
<!DOCTYPE svg PUBLIC "-//W3C//DTD SVG 1.1//EN" "http://www.w3.org/Graphics/SVG/1.1/DTD/svg11.dtd">
<svg version="1.1" baseProfile="full"
 xmlns="http://www.w3.org/2000/svg"
 xmlns:xlink="http://www.w3.org/1999/xlink"
 xmlns:ev="http://www.w3.org/2001/xml-events" 
  height="22px" 
  width="37px" 
>
<path fill="rgb( 255, 255, 255 )"
 d="M33.0820000000001,10.002 L33.0820000000001,4.02200000000005 C33.0820000000001,3.62300000000005 32.8589999999999,3.25599999999997 32.499,3.06100000000004 C32.1400000000001,2.86699999999996 31.816,2.87599999999998 31.4659999999999,3.08500000000004 L19.0029999999999,9.10900000000004 L19.0029999999999,2.09699999999998 L18.9960000000001,2.09699999999998 C18.9960000000001,1.48800000000006 18.4870000000001,0.99599999999998 17.8589999999999,0.99599999999998 L13.961,0.99599999999998 L13.961,3.02800000000002 L16.9949999999999,3.02800000000002 L16.9949999999999,9.10900000000004 L5.56400000000008,2.86599999999999 C5.21299999999997,2.65700000000004 4.89899999999989,2.64800000000002 4.53899999999999,2.84199999999998 C4.18000000000006,3.03700000000003 3.95700000000011,3.404 3.95700000000011,3.803 L3.95700000000011,10.002 L0.99299999999994,10.002 L0.99299999999994,11.996 L3.95700000000011,11.996 L3.95700000000011,17.913 C3.95700000000011,18.313 4.18000000000006,18.6799999999999 4.53899999999999,18.874 C4.71199999999999,18.968 4.77800000000002,19.014 4.96800000000007,19.014 C5.17499999999995,19.014 5.38200000000006,18.9589999999999 5.56400000000008,18.851 L16.9949999999999,12.884 L16.9949999999999,19.927 L17.0029999999999,19.927 C17.0029999999999,20.535 17.511,21.028 18.1389999999999,21.028 L22.0050000000001,21.028 L21.912,18.939 L19.008,18.939 L19.008,12.884 L31.4659999999999,18.851 C31.6479999999999,18.9589999999999 31.855,19.014 32.0609999999999,19.014 C32.252,19.014 32.327,18.968 32.499,18.874 C32.8589999999999,18.6799999999999 33.0820000000001,18.313 33.0820000000001,17.913 L33.0820000000001,11.996 L36.0060000000001,11.996 L36.0060000000001,10.002 L33.0820000000001,10.002 ZM30.925,5.99199999999996 L30.925,10.002 L22.01,10.002 L30.925,5.99199999999996 ZM5.98900000000003,5.774 L13.961,10.002 L5.98900000000003,10.002 L5.98900000000003,5.774 ZM5.98900000000003,16.318 L5.98900000000003,11.996 L13.961,11.996 L5.98900000000003,16.318 ZM30.925,16.318 L22.068,11.996 L30.925,11.996 L30.925,16.318 Z "/>
</svg>
