<?xml version="1.0" encoding="utf-8"?>
<!-- Generator: Adobe Illustrator 19.1.1, SVG Export Plug-In . SVG Version: 6.00 Build 0)  -->
<svg version="1.1" id="Layer_1" xmlns="http://www.w3.org/2000/svg" xmlns:xlink="http://www.w3.org/1999/xlink" x="0px" y="0px"
	 viewBox="0 0 72 72" enable-background="new 0 0 72 72" xml:space="preserve">
<g>
	<path d="M67.9,18.7c-0.7,0.7-1.5,1.1-2.4,1.1c-0.9,0-1.7-0.4-2.4-1.1c-0.8-0.8-1.2-1.7-1.2-2.6c0-0.9,0.4-1.7,1.2-2.5
		c0.7-0.7,1.5-1.1,2.4-1.1c0.9,0,1.7,0.4,2.5,1.2c0.8,0.8,1.2,1.6,1.2,2.5C69,17.1,68.7,17.9,67.9,18.7z M63.6,14.2
		c-0.5,0.5-0.7,1.1-0.7,1.7c0,0.6,0.4,1.2,0.9,1.8c0.6,0.6,1.2,0.9,1.8,0.9c0.6,0,1.2-0.2,1.7-0.7c0.5-0.5,0.7-1.1,0.7-1.7
		c0-0.6-0.4-1.2-1-1.8c-0.6-0.6-1.2-0.9-1.8-1C64.6,13.5,64.1,13.7,63.6,14.2z"/>
	<path d="M63.5,23.1l0.8-0.8c0,0-3.4-3.4-4.5-4.5c-0.4-0.4-1.3,0.2-1.3,0.2L63.5,23.1z"/>
	<path d="M57.6,16.4c0.1-0.1,0.2-0.3,0.2-0.5c0-0.2-0.1-0.4-0.2-0.5c-0.1-0.1-0.3-0.2-0.5-0.2c-0.2,0-0.4,0.1-0.5,0.2
		c-0.1,0.1-0.2,0.3-0.2,0.5c0,0.2,0.1,0.4,0.2,0.5c0.1,0.1,0.3,0.2,0.5,0.2C57.3,16.6,57.5,16.5,57.6,16.4z"/>
	<path d="M52.2,25.5c-0.4-0.4-1.3,0.2-1.3,0.2l2.8,2.8c0.2,0.2,1.5,1.5,1.5,1.5c-0.5,0.5-1.1,1.1-1.3,1.3c-0.8,0.8-1.7,0.7-2.7-0.4
		c0,0-1.7-1.7-2.3-2.3c-0.4-0.4-1.3,0.2-1.3,0.2l2.9,2.9c1.4,1.4,2.7,1.5,3.8,0.4c0.7-0.7,2.3-2.3,2.3-2.3s-1-1-2-2l-2.3-2.3
		C52.2,25.5,52.2,25.5,52.2,25.5z"/>
	<path d="M44.7,41.3c0,0-0.3-1,0-1.1c0.4-0.2,0.7-0.4,1-0.7c0.7-0.7,0.8-1.3,0.4-1.7c-0.1-0.1-0.3-0.2-0.4-0.2c-0.1,0-0.3,0-0.5,0
		c-0.2,0-0.4,0.1-0.5,0.2c-0.2,0.1-0.4,0.2-0.6,0.3c-0.3,0.1-0.6,0.2-0.8,0.3c-0.2,0.1-0.5,0.1-0.7,0.1c-0.2,0-0.4,0-0.6-0.1
		c-0.2-0.1-0.4-0.2-0.6-0.4c-0.2-0.2-0.4-0.5-0.4-0.8c-0.1-0.3-0.1-0.6,0-0.9c0.1-0.3,0.2-0.6,0.3-0.9c0.2-0.3,0.4-0.5,0.6-0.8
		c0.4-0.4,0.9-0.7,1.3-0.9c0,0,0.2,0.9,0,1.1c-0.3,0.1-0.5,0.3-0.8,0.6c-0.1,0.1-0.3,0.3-0.3,0.4c-0.1,0.2-0.1,0.3-0.2,0.4
		c0,0.1,0,0.3,0,0.4c0,0.1,0.1,0.2,0.2,0.3c0.1,0.1,0.3,0.2,0.4,0.2c0.1,0,0.3,0,0.4,0s0.3-0.1,0.5-0.1c0.2-0.1,0.4-0.2,0.6-0.3
		c0.3-0.1,0.6-0.2,0.8-0.3c0.3-0.1,0.5-0.1,0.7-0.1c0.2,0,0.4,0,0.7,0.1c0.2,0.1,0.4,0.2,0.6,0.4c0.2,0.2,0.4,0.5,0.5,0.8
		c0.1,0.3,0.1,0.6,0,0.9c-0.1,0.3-0.2,0.6-0.4,0.9c-0.2,0.3-0.4,0.6-0.6,0.8C45.8,40.8,45.2,41.2,44.7,41.3z"/>
	<path d="M50.2,35c-0.3,0.3-0.5,0.4-0.8,0.3c-0.3,0-0.5-0.2-0.9-0.5L45.8,32c0,0,0.5-0.5,0.7-0.7c0.4-0.4-0.1-1.2-0.1-1.2l-1.2,1.2
		l0,0l0,0c0,0-0.4-0.4-0.6-0.6c-0.4-0.4-1.3,0.3-1.3,0.3l4.9,4.9c0.9,0.8,1.8,0.8,2.6,0c0.3-0.3,0.5-0.6,0.6-0.9
		C51.2,35,50.4,34.9,50.2,35z"/>
	<path d="M51.9,13.9c-1.3-1.3-2.5-1.4-3.6-0.4c-0.7,0.7-0.9,1.6-0.6,2.6c-0.4-0.2-0.8-0.3-1.2-0.2c-0.4,0.1-0.8,0.3-1.2,0.6
		c-0.7,0.7-1,1.3-0.8,2.3c0,0,0,0,0,0c-0.6-0.4-1.4,0.2-1.4,0.2l4.9,4.9l0.8-0.8l-2.8-2.8c-0.5-0.5-0.7-1-0.8-1.5
		c-0.1-0.5,0.1-0.9,0.4-1.3c0.7-0.7,1.6-0.6,2.6,0.4l2.9,2.9L52,20l-2.8-2.8c-0.4-0.4-0.7-0.9-0.8-1.5c-0.1-0.5,0.1-1,0.4-1.3
		c0.4-0.4,0.8-0.5,1.2-0.5c0.4,0.1,0.9,0.4,1.4,0.9l5.8,5.8l0,0c-0.8-0.2-1.6,0-2.2,0.7c-0.7,0.7-1,1.5-0.9,2.3
		c0.1,0.9,0.5,1.7,1.3,2.5c0.7,0.8,1.5,1.2,2.3,1.2c0.8,0.1,1.5-0.2,2.1-0.8c0.7-0.7,2.4-2.5,2.5-2.5L51.9,13.9z M59.4,25.8
		c-0.4,0.4-1,0.6-1.5,0.6c-0.6-0.1-1.2-0.4-1.7-0.9c-0.6-0.6-1-1.2-1-1.8c-0.1-0.6,0.1-1.2,0.6-1.6c0.4-0.4,0.9-0.6,1.4-0.6
		c0.5,0,1,0.2,1.4,0.6l0.7,0.7c0.5,0.5,1.6,1.6,1.6,1.6C60.3,24.9,59.9,25.4,59.4,25.8z"/>
	<path d="M41.8,20.2c-0.7,0.7-1,1.3-0.8,2.3l0,0c0,0,0,0,0,0c-0.6-0.4-1.4,0.2-1.4,0.2l4.9,4.9l0.8-0.8l-2.8-2.8
		c-0.5-0.5-0.7-1-0.8-1.5c-0.1-0.5,0.1-0.9,0.4-1.3c0.2-0.2-0.1-1.2-0.1-1.2C41.9,20,41.8,20.1,41.8,20.2z"/>
	<path d="M40.8,31.2c-0.7,0.7-1.5,1.1-2.4,1.1c-0.9,0-1.7-0.4-2.4-1.1c-0.8-0.8-1.2-1.7-1.2-2.6c0-0.9,0.4-1.7,1.2-2.5
		c0.7-0.7,1.5-1.1,2.4-1.1c0.9,0,1.7,0.4,2.5,1.2c0.8,0.8,1.2,1.6,1.2,2.5C41.9,29.6,41.6,30.4,40.8,31.2z M36.5,26.7
		c-0.5,0.5-0.7,1.1-0.7,1.7c0,0.6,0.4,1.2,0.9,1.8c0.6,0.6,1.2,0.9,1.8,0.9c0.6,0,1.2-0.2,1.7-0.7c0.5-0.5,0.7-1.1,0.7-1.7
		c0-0.6-0.4-1.2-1-1.8c-0.6-0.6-1.2-0.9-1.8-1C37.6,26,37,26.2,36.5,26.7z"/>
	<path d="M48.8,49.2L34.1,34.5c0.2-0.2,0.5-0.5,0.6-0.6c0.4-0.4-0.1-1.3-0.1-1.3l-1.2,1.2L32.6,33c-0.7-0.7-0.8-1.4-0.2-2
		c0.2-0.2-0.1-1.2-0.1-1.2c-0.1,0-0.2,0.1-0.3,0.1c-0.1,0.1-0.3,0.2-0.4,0.4c-0.5,0.5-0.7,1-0.7,1.7c0,0.6,0.3,1.1,0.8,1.7L48,50
		c0.7,0.7,0.7,1.8,0,2.5l-5.4,5.4c-0.7,0.7-1.8,0.7-2.5,0L26.4,44L12.5,57.9c-0.7,0.7-1.8,0.7-2.5,0l-5.4-5.4C4,51.8,4,50.7,4.7,50
		l13.8-13.8L4.7,22.4c-0.7-0.7-0.7-1.8,0-2.5l5.4-5.4c0.7-0.7,1.8-0.7,2.5,0l13.8,13.8c0,0,11.2-11.2,14.1-14.1
		c0.6-0.6-0.1-1.5-0.1-1.5l-14,14l-13-13c-1.1-1.1-3-1.2-4.1-0.1l-5.4,5.4c-1.1,1.1-1.1,3,0.1,4.1l13,13l-13,13
		c-1.1,1.2-1.2,3-0.1,4.1l5.4,5.4c1.1,1.1,3,1.1,4.1-0.1l13-13l13,13c1.1,1.1,3,1.2,4.1,0.1l5.4-5.4C50,52.2,50,50.3,48.8,49.2z"/>
</g>
</svg>
