<?xml version="1.0" encoding="utf-8"?>
<!DOCTYPE svg PUBLIC "-//W3C//DTD SVG 1.1//EN" "http://www.w3.org/Graphics/SVG/1.1/DTD/svg11.dtd">
<svg version="1.1" baseProfile="full"
 xmlns="http://www.w3.org/2000/svg"
 xmlns:xlink="http://www.w3.org/1999/xlink"
 xmlns:ev="http://www.w3.org/2001/xml-events" 
  height="14px" 
  width="23px" 
>
<path fill="rgb( 255, 255, 255 )"
 d="M19.519,6.28399999999999 C19.8320000000001,5.86500000000001 20.0809999999999,5.52999999999997 20.2639999999999,5.27599999999995 C21.586,3.45699999999999 22.1590000000001,2.29499999999996 21.9829999999999,1.78800000000001 L21.915,1.66899999999998 C21.8689999999999,1.59799999999996 21.75,1.53300000000002 21.559,1.47400000000005 C21.3679999999999,1.41399999999999 21.124,1.40499999999997 20.826,1.44399999999996 L17.5250000000001,1.46799999999996 C17.4490000000001,1.46000000000004 17.3720000000001,1.46199999999999 17.296,1.47400000000005 C17.2190000000001,1.48599999999999 17.1700000000001,1.49800000000005 17.1469999999999,1.50900000000001 C17.124,1.52099999999996 17.105,1.53099999999995 17.0899999999999,1.53800000000001 L17.0440000000001,1.57399999999996 C17.0060000000001,1.59799999999996 16.963,1.63999999999999 16.9179999999999,1.69899999999996 C16.8720000000001,1.75900000000001 16.8330000000001,1.827 16.8030000000001,1.90700000000004 C16.444,2.86400000000003 16.0350000000001,3.75400000000002 15.577,4.57600000000002 C15.2940000000001,5.06600000000003 15.0340000000001,5.49199999999996 14.797,5.851 C14.5609999999999,6.21100000000001 14.3620000000001,6.476 14.201,6.64599999999996 C14.0409999999999,6.81600000000003 13.896,6.95299999999997 13.7660000000001,7.05499999999995 C13.636,7.15800000000002 13.537,7.202 13.4680000000001,7.18600000000004 C13.3989999999999,7.16999999999996 13.3340000000001,7.154 13.2729999999999,7.13800000000003 C13.1659999999999,7.06799999999998 13.0799999999999,6.971 13.0150000000001,6.84799999999996 C12.95,6.726 12.9069999999999,6.57100000000003 12.883,6.38499999999999 C12.8610000000001,6.20000000000005 12.847,6.03999999999996 12.8430000000001,5.904 C12.8389999999999,5.76999999999998 12.8409999999999,5.58000000000004 12.8489999999999,5.33500000000004 C12.857,5.08900000000006 12.8610000000001,4.92399999999998 12.8610000000001,4.83699999999999 C12.8610000000001,4.53599999999994 12.866,4.21000000000004 12.8779999999999,3.85799999999995 C12.8889999999999,3.50699999999995 12.8989999999999,3.22699999999998 12.9069999999999,3.02099999999996 C12.914,2.81700000000001 12.9179999999999,2.59900000000005 12.9179999999999,2.36900000000003 C12.9179999999999,2.13999999999999 12.904,1.96000000000004 12.8779999999999,1.82899999999995 C12.8510000000001,1.69899999999996 12.8109999999999,1.57299999999998 12.7570000000001,1.44899999999996 C12.704,1.32799999999997 12.625,1.23299999999995 12.5219999999999,1.16499999999996 C12.4190000000001,1.09799999999996 12.2909999999999,1.04499999999996 12.1379999999999,1.00400000000002 C11.7329999999999,0.90999999999997 11.2170000000001,0.85900000000004 10.5909999999999,0.85000000000002 C9.17000000000007,0.83600000000001 8.25700000000006,0.92999999999995 7.85200000000009,1.13599999999997 C7.69100000000003,1.22299999999996 7.54600000000005,1.34100000000001 7.41599999999994,1.49199999999996 C7.279,1.66600000000005 7.25900000000001,1.76099999999997 7.35899999999992,1.77599999999995 C7.81799999999998,1.84699999999998 8.14200000000005,2.01800000000003 8.33300000000008,2.28599999999994 L8.40200000000004,2.428 C8.45499999999993,2.53099999999995 8.50900000000001,2.71400000000006 8.5619999999999,2.97500000000002 C8.61599999999999,3.23599999999999 8.65000000000009,3.524 8.66599999999994,3.84000000000003 C8.70399999999995,4.41800000000001 8.70399999999995,4.91200000000003 8.66599999999994,5.32399999999996 C8.62699999999995,5.73500000000001 8.59099999999989,6.05600000000004 8.55700000000002,6.28399999999999 C8.52199999999993,6.51400000000001 8.471,6.69899999999996 8.40200000000004,6.84199999999998 C8.33300000000008,6.98500000000001 8.28700000000003,7.072 8.2639999999999,7.10299999999995 C8.24099999999999,7.13400000000001 8.22199999999998,7.154 8.20700000000011,7.16200000000003 C8.10799999999995,7.20100000000002 8.00500000000011,7.221 7.89799999999991,7.221 C7.79099999999994,7.221 7.66100000000006,7.16600000000005 7.50800000000004,7.05499999999995 C7.35500000000002,6.94500000000005 7.19699999999989,6.79200000000003 7.0329999999999,6.59799999999996 C6.86799999999994,6.40499999999997 6.68299999999999,6.13400000000001 6.47700000000009,5.78599999999994 C6.26999999999998,5.43799999999999 6.05600000000004,5.02599999999995 5.83500000000004,4.55200000000002 L5.65100000000007,4.20699999999999 C5.53700000000003,3.98699999999997 5.38000000000011,3.66399999999999 5.18100000000004,3.24099999999999 C4.98299999999995,2.81799999999998 4.80700000000002,2.40899999999999 4.654,2.01300000000003 C4.59300000000007,1.84699999999998 4.50199999999995,1.72000000000003 4.37899999999991,1.63400000000001 L4.32199999999989,1.59799999999996 C4.28400000000011,1.56600000000003 4.22299999999996,1.53300000000002 4.1389999999999,1.49800000000005 C4.05400000000009,1.46199999999999 3.9670000000001,1.43499999999995 3.875,1.41999999999996 L0.7349999999999,1.44399999999996 C0.41399999999999,1.44399999999996 0.19599999999991,1.51900000000001 0.0809999999999,1.66899999999998 L0.03500000000008,1.74000000000001 C0.01299999999992,1.78099999999995 0.00099999999998,1.84299999999996 0.00099999999998,1.92999999999995 C0.00099999999998,2.01800000000003 0.02399999999989,2.12400000000002 0.06999999999994,2.25 C0.52800000000002,3.36599999999999 1.02700000000004,4.44200000000001 1.56600000000003,5.47699999999998 C2.10400000000004,6.51400000000001 2.57199999999989,7.34799999999996 2.97000000000003,7.98099999999999 C3.36699999999996,8.61400000000003 3.77199999999993,9.21000000000004 4.18499999999995,9.77200000000005 C4.59699999999998,10.3339999999999 4.86999999999989,10.693 5.00399999999991,10.852 C5.13799999999992,11.01 5.24299999999994,11.129 5.31899999999996,11.208 L5.60599999999999,11.4930000000001 C5.78899999999999,11.682 6.05899999999997,11.909 6.41399999999999,12.175 C6.76900000000001,12.4400000000001 7.16200000000003,12.701 7.59400000000005,12.958 C8.02600000000007,13.215 8.52800000000002,13.424 9.10100000000011,13.587 C9.67399999999998,13.749 10.232,13.814 10.7750000000001,13.783 L12.0930000000001,13.783 C12.3599999999999,13.759 12.5630000000001,13.672 12.7,13.521 L12.7460000000001,13.463 C12.7760000000001,13.414 12.8050000000001,13.342 12.8320000000001,13.242 C12.8589999999999,13.144 12.8720000000001,13.035 12.8720000000001,12.917 C12.864,12.577 12.8900000000001,12.27 12.9469999999999,11.998 C13.0039999999999,11.725 13.069,11.519 13.1410000000001,11.38 C13.2139999999999,11.242 13.296,11.125 13.3879999999999,11.03 C13.48,10.9349999999999 13.5440000000001,10.878 13.5830000000001,10.859 C13.6210000000001,10.8390000000001 13.652,10.825 13.674,10.817 C13.8579999999999,10.754 14.0740000000001,10.8150000000001 14.3219999999999,11 C14.5699999999999,11.186 14.8040000000001,11.4160000000001 15.021,11.689 C15.239,11.962 15.501,12.268 15.806,12.6079999999999 C16.1120000000001,12.949 16.3789999999999,13.201 16.6089999999999,13.367 L16.838,13.51 C16.991,13.605 17.1890000000001,13.692 17.434,13.771 C17.6780000000001,13.85 17.8920000000001,13.87 18.076,13.831 L21.01,13.783 C21.3,13.783 21.5260000000001,13.7329999999999 21.6859999999999,13.634 C21.847,13.5359999999999 21.942,13.427 21.973,13.308 C22.0029999999999,13.1900000000001 22.0050000000001,13.056 21.9780000000001,12.905 C21.951,12.755 21.925,12.65 21.8979999999999,12.591 C21.8710000000001,12.532 21.847,12.482 21.8230000000001,12.443 C21.441,11.731 20.712,10.857 19.634,9.82100000000003 L19.6110000000001,9.79700000000003 L19.5999999999999,9.78499999999997 L19.5889999999999,9.77300000000002 L19.577,9.77300000000002 C19.088,9.29100000000005 18.779,8.96699999999998 18.6489999999999,8.80100000000004 C18.412,8.48500000000001 18.3579999999999,8.16399999999999 18.489,7.83900000000006 C18.5799999999999,7.59400000000005 18.923,7.07500000000005 19.519,6.28399999999999 Z "/>
</svg>
