<?xml version="1.0" encoding="utf-8"?>
<!DOCTYPE svg PUBLIC "-//W3C//DTD SVG 1.1//EN" "http://www.w3.org/Graphics/SVG/1.1/DTD/svg11.dtd">
<svg version="1.1" baseProfile="full"
 xmlns="http://www.w3.org/2000/svg"
 xmlns:xlink="http://www.w3.org/1999/xlink"
 xmlns:ev="http://www.w3.org/2001/xml-events" 
  height="20px" 
  width="20px" 
>
<path fill="rgb( 255, 255, 255 )"
 d="M14.6659999999999,19.03 L6.24099999999999,19.03 C3.33799999999997,19.03 0.97499999999991,16.673 0.97499999999991,13.775 L0.97499999999991,5.27300000000002 C0.97499999999991,2.375 3.33799999999997,0.01800000000003 6.24099999999999,0.01800000000003 L14.6659999999999,0.01800000000003 C17.569,0.01800000000003 19.931,2.375 19.931,5.27300000000002 L19.931,13.775 C19.931,16.673 17.569,19.03 14.6659999999999,19.03 ZM17.954,5.59799999999996 C17.954,3.63199999999995 16.3510000000001,2.00199999999995 14.3810000000001,2.00199999999995 L6.5630000000001,2.00199999999995 C4.59300000000007,2.00199999999995 2.99099999999999,3.63199999999995 2.99099999999999,5.59799999999996 L2.99099999999999,13.449 C2.99099999999999,15.4160000000001 4.59300000000007,17.016 6.5630000000001,17.015 L14.3810000000001,17.015 C16.3510000000001,17.015 17.953,15.4160000000001 17.954,13.45 L17.954,5.59799999999996 ZM15.5139999999999,5.678 C15.1869999999999,5.678 14.867,5.54499999999996 14.6369999999999,5.31500000000005 C14.405,5.08500000000004 14.2719999999999,4.76400000000001 14.2719999999999,4.43899999999996 C14.2719999999999,4.11199999999997 14.405,3.79200000000003 14.6369999999999,3.56299999999999 C14.867,3.33199999999999 15.1869999999999,3.20000000000005 15.5139999999999,3.20000000000005 C15.8409999999999,3.20000000000005 16.162,3.33199999999999 16.3920000000001,3.56299999999999 C16.623,3.79200000000003 16.7550000000001,4.11199999999997 16.7550000000001,4.43899999999996 C16.7550000000001,4.76400000000001 16.623,5.08500000000004 16.3920000000001,5.31500000000005 C16.1600000000001,5.54499999999996 15.8409999999999,5.678 15.5139999999999,5.678 ZM15.9490000000001,9.50999999999999 C15.9490000000001,12.533 13.4839999999999,14.994 10.454,14.994 C7.42399999999998,14.994 4.95800000000008,12.533 4.95800000000008,9.50999999999999 C4.95800000000008,6.48500000000001 7.42399999999998,4.02499999999998 10.454,4.02499999999998 C13.4839999999999,4.02499999999998 15.9490000000001,6.48500000000001 15.9490000000001,9.50999999999999 ZM10.454,6.00800000000004 C8.4670000000001,6.00800000000004 6.85100000000011,7.55799999999999 6.85100000000011,9.54100000000005 C6.85100000000011,11.524 8.4670000000001,13.043 10.454,13.043 C12.4400000000001,13.043 14.0250000000001,11.492 14.0250000000001,9.50999999999999 C14.0250000000001,7.52700000000004 12.4400000000001,6.00800000000004 10.454,6.00800000000004 Z "/>
</svg>
