<?xml version="1.0" encoding="utf-8"?>
<!DOCTYPE svg PUBLIC "-//W3C//DTD SVG 1.1//EN" "http://www.w3.org/Graphics/SVG/1.1/DTD/svg11.dtd">
<svg version="1.1" baseProfile="full"
 xmlns="http://www.w3.org/2000/svg"
 xmlns:xlink="http://www.w3.org/1999/xlink"
 xmlns:ev="http://www.w3.org/2001/xml-events" 
  height="19px" 
  width="29px" 
>
<path fill="rgb( 251, 39, 20 )"
 d="M28.288,3.14800000000014 C28.5,3.72499999999991 28.061,4.4340000000002 27.294,4.68499999999995 C24.48,5.61200000000008 22.715,7.41499999999996 22.4,8.85800000000017 L26.775,8.85800000000017 C27.539,8.85800000000017 28.063,9.3760000000002 27.9400000000001,10.0100000000002 L26.471,17.5569999999998 C26.348,18.1900000000001 25.622,18.7089999999998 24.8579999999999,18.7089999999998 L15.76,18.7089999999998 C14.996,18.7089999999998 14.472,18.1900000000001 14.596,17.5569999999998 L15.7430000000001,11.6610000000001 C16.302,8.78900000000021 17.42,6.29700000000003 20.921,3.88799999999992 C22.496,2.8130000000001 24.62,1.90999999999985 26.699,1.2199999999998 C27.442,0.9699999999998 28.1799999999999,1.2199999999998 28.396,1.77599999999984 L28.288,3.14800000000014 ZM13.712,4.68499999999995 C10.897,5.61200000000008 8.99099999999999,7.41499999999996 8.67599999999999,8.85800000000017 L13.028,8.85800000000017 C13.792,8.85800000000017 14.316,9.3760000000002 14.193,10.0100000000002 L12.724,17.5569999999998 C12.601,18.1900000000001 11.875,18.7089999999998 11.111,18.7089999999998 L2.01400000000001,18.7089999999998 C1.25,18.7089999999998 0.72500000000002,18.1900000000001 0.84899999999999,17.5569999999998 L1.99599999999998,11.6610000000001 C2.548,8.82200000000012 3.75200000000001,6.21300000000019 7.17399999999998,3.88799999999992 C8.73000000000002,2.79300000000012 11.0170000000001,1.89100000000008 13.12,1.19999999999982 C13.8630000000001,0.95100000000002 14.601,1.19999999999982 14.817,1.75700000000006 L14.705,3.14800000000014 C14.917,3.72499999999991 14.478,4.4340000000002 13.712,4.68499999999995 Z "/>
</svg>
