<?xml version="1.0" encoding="utf-8"?>
<!DOCTYPE svg PUBLIC "-//W3C//DTD SVG 1.1//EN" "http://www.w3.org/Graphics/SVG/1.1/DTD/svg11.dtd">
<svg version="1.1" baseProfile="full"
 xmlns="http://www.w3.org/2000/svg"
 xmlns:xlink="http://www.w3.org/1999/xlink"
 xmlns:ev="http://www.w3.org/2001/xml-events" 
  height="25px" 
  width="30px" 
>
<path fill="rgb( 255, 255, 255 )"
 d="M28.066,3.96900000000005 L25.9949999999999,3.96900000000005 L25.9949999999999,1.7360000000001 C25.9949999999999,1.27399999999989 25.643,0.88100000000009 25.1669999999999,0.8119999999999 C25.0840000000001,0.80099999999993 23.624,0.52500000000009 21.2439999999999,0.94100000000003 C18.5909999999999,1.40499999999997 16.905,2.54899999999998 15.47,4.279 C14.0350000000001,2.54899999999998 11.403,1.40499999999997 8.75,0.94100000000003 C6.36999999999989,0.52500000000009 4.86699999999996,0.80099999999993 4.78400000000011,0.8119999999999 C4.30799999999999,0.88100000000009 3.95700000000011,1.27399999999989 3.95700000000011,1.7360000000001 L3.95700000000011,3.96900000000005 L1.92800000000011,3.96900000000005 C1.39200000000005,3.96900000000005 0.95700000000011,4.38699999999994 0.95700000000011,4.90200000000004 L0.95700000000011,23.1890000000001 C0.95700000000011,23.491 1.10899999999992,23.7739999999999 1.36500000000001,23.9490000000001 C1.62200000000007,24.125 1.95000000000005,24.1700000000001 2.24700000000007,24.069 C2.31999999999994,24.0450000000001 9.125,20.5730000000001 14.5509999999999,22.952 C14.807,23.0650000000001 15.1869999999999,23.0650000000001 15.443,22.952 C20.854,20.5799999999999 27.674,24.046 27.7470000000001,24.069 C27.8510000000001,24.105 27.9590000000001,24.1220000000001 28.066,24.1220000000001 C28.2650000000001,24.1220000000001 28.462,24.0630000000001 28.6289999999999,23.9490000000001 C28.885,23.7750000000001 29.037,23.491 29.037,23.1890000000001 L29.037,4.90200000000004 C29.037,4.38699999999994 28.6020000000001,3.96900000000005 28.066,3.96900000000005 ZM2.97299999999996,21.9400000000001 L2.97299999999996,6.00800000000004 L3.95700000000011,6.00800000000004 L3.95700000000011,18.05 C3.95700000000011,18.3209999999999 4.07999999999993,18.579 4.2940000000001,18.7560000000001 C4.50700000000006,18.933 4.79099999999994,19.0129999999999 5.06999999999994,18.973 C5.12400000000002,18.9659999999999 8.86999999999989,17.9449999999999 11.952,19.9780000000001 C5.98199999999997,19.9780000000001 3.10200000000009,21.895 2.97299999999996,21.9400000000001 ZM13.9829999999999,19.0409999999999 C10.6310000000001,16.674 6.05799999999999,17.076 5.9849999999999,17.038 L5.9849999999999,2.59300000000007 L5.9849999999999,2.59300000000007 C7.85100000000011,2.51199999999994 11.8330000000001,2.70399999999995 13.9829999999999,6.2059999999999 L13.9829999999999,19.0409999999999 ZM16.011,6.2059999999999 C18.153,2.71900000000005 22.1420000000001,2.51800000000003 24.009,2.59500000000003 L24.009,17.038 C24.009,17.038 18.8309999999999,16.883 16.011,19.0409999999999 L16.011,6.2059999999999 L16.011,6.2059999999999 ZM18.039,19.9780000000001 C21.1220000000001,17.944 24.827,18.9649999999999 24.8800000000001,18.973 C25.1590000000001,19.0139999999999 25.443,18.934 25.6569999999999,18.7570000000001 C25.8710000000001,18.5799999999999 25.9949999999999,18.3219999999999 25.9949999999999,18.05 L25.9949999999999,6.00800000000004 L27.009,6.00800000000004 L27.009,21.9400000000001 C26.914,21.895 24.9949999999999,19.9649999999999 18.039,19.9780000000001 Z "/>
</svg>
