<?xml version="1.0" encoding="utf-8"?>
<!DOCTYPE svg PUBLIC "-//W3C//DTD SVG 1.1//EN" "http://www.w3.org/Graphics/SVG/1.1/DTD/svg11.dtd">
<svg version="1.1" baseProfile="full"
 xmlns="http://www.w3.org/2000/svg"
 xmlns:xlink="http://www.w3.org/1999/xlink"
 xmlns:ev="http://www.w3.org/2001/xml-events" 
  height="11px" 
  width="21px" 
>
<path fill="rgb( 214, 218, 226 )"
 d="M19.5540000000001,9.654 C19.501,9.57099999999991 19.1780000000001,8.90300000000002 17.6220000000001,7.53099999999995 C15.9939999999999,6.09400000000005 16.212,6.327 18.174,3.8420000000001 C19.3689999999999,2.32899999999995 19.846,1.40499999999997 19.6969999999999,1.00900000000001 C19.5550000000001,0.63300000000004 18.6759999999999,0.73199999999997 18.6759999999999,0.73199999999997 L15.7539999999999,0.74900000000002 C15.7539999999999,0.74900000000002 15.538,0.721 15.376,0.8119999999999 C15.2190000000001,0.90200000000004 15.1189999999999,1.1099999999999 15.1189999999999,1.1099999999999 C15.1189999999999,1.1099999999999 14.655,2.28199999999993 14.038,3.27700000000004 C12.7360000000001,5.37899999999991 12.2149999999999,5.48900000000003 12.002,5.35899999999992 C11.508,5.05500000000006 11.6310000000001,4.13699999999994 11.6310000000001,3.4849999999999 C11.6310000000001,1.44900000000007 11.9559999999999,0.59899999999993 10.998,0.38000000000011 C10.6800000000001,0.30700000000002 10.4459999999999,0.25900000000001 9.63300000000004,0.25099999999998 C8.59099999999989,0.24000000000001 7.70700000000011,0.25399999999991 7.20700000000011,0.4860000000001 C6.87400000000002,0.64100000000008 6.61799999999994,0.98700000000008 6.77500000000009,1.00600000000009 C6.96800000000007,1.02999999999997 7.40599999999995,1.11799999999994 7.63799999999992,1.41799999999989 C7.9380000000001,1.80600000000004 7.92699999999991,2.67599999999993 7.92699999999991,2.67599999999993 C7.92699999999991,2.67599999999993 8.09999999999991,5.07400000000007 7.52500000000009,5.37200000000007 C7.13000000000011,5.57600000000002 6.58899999999994,5.15900000000011 5.42800000000011,3.25199999999995 C4.83400000000006,2.27600000000007 4.38400000000001,1.19599999999991 4.38400000000001,1.19599999999991 C4.38400000000001,1.19599999999991 4.298,0.99499999999989 4.14300000000003,0.88699999999994 C3.9559999999999,0.75700000000006 3.69399999999996,0.71499999999992 3.69399999999996,0.71499999999992 L0.91499999999996,0.73099999999999 C0.91499999999996,0.73099999999999 0.49800000000005,0.74299999999994 0.34500000000003,0.91499999999996 C0.20900000000006,1.06899999999996 0.33400000000006,1.38499999999999 0.33400000000006,1.38499999999999 C0.33400000000006,1.38499999999999 2.50999999999999,6.22199999999998 4.97199999999998,8.66000000000008 C7.23199999999997,10.896 9.79600000000005,10.749 9.79600000000005,10.749 L10.9580000000001,10.749 C10.9580000000001,10.749 11.309,10.712 11.4880000000001,10.528 C11.653,10.3599999999999 11.6469999999999,10.0429999999999 11.6469999999999,10.0429999999999 C11.6469999999999,10.0429999999999 11.624,8.56099999999992 12.3489999999999,8.34300000000007 C13.0619999999999,8.12799999999993 13.9780000000001,9.77500000000009 14.95,10.4090000000001 C15.684,10.8889999999999 16.242,10.7840000000001 16.242,10.7840000000001 L18.8389999999999,10.749 C18.8389999999999,10.749 20.1980000000001,10.6690000000001 19.5540000000001,9.654 Z "/>
</svg>
