<?xml version="1.0" encoding="utf-8"?>
<!DOCTYPE svg PUBLIC "-//W3C//DTD SVG 1.1//EN" "http://www.w3.org/Graphics/SVG/1.1/DTD/svg11.dtd">
<svg version="1.1" baseProfile="full"
 xmlns="http://www.w3.org/2000/svg"
 xmlns:xlink="http://www.w3.org/1999/xlink"
 xmlns:ev="http://www.w3.org/2001/xml-events" 
  height="18px" 
  width="19px" 
>
<path fill="rgb( 255, 255, 255 )"
 d="M17.962,1.51099999999997 L12.2929999999999,15.048 C12.1869999999999,15.269 11.9770000000001,15.41 11.7449999999999,15.41 L11.7239999999999,15.41 C11.45,15.389 11.239,15.229 11.1759999999999,15.0069999999999 L9.25800000000004,9.09400000000005 L3.04099999999994,7.26300000000003 C2.80899999999997,7.18299999999999 2.61999999999989,6.96199999999999 2.61999999999989,6.74099999999999 C2.61999999999989,6.51900000000001 2.76700000000005,6.27800000000002 2.99900000000002,6.19799999999998 L17.182,0.76700000000005 C17.393,0.68600000000004 17.625,0.72699999999998 17.8140000000001,0.90700000000004 C18.0039999999999,1.06799999999998 18.046,1.30999999999995 17.962,1.51099999999997 ZM3.952,9.96400000000006 L0.83799999999997,12.937 L0.00399999999991,12.141 L3.11799999999994,9.16800000000001 L3.952,9.96400000000006 ZM5.64100000000008,13.162 L2.52600000000007,16.134 L1.69200000000001,15.338 L4.80600000000004,12.365 L5.64100000000008,13.162 ZM8.9849999999999,14.76 L5.86999999999989,17.7329999999999 L5.03600000000006,16.936 L8.15000000000009,13.9640000000001 L8.9849999999999,14.76 Z "/>
</svg>
