<?xml version="1.0" encoding="utf-8"?>
<!DOCTYPE svg PUBLIC "-//W3C//DTD SVG 1.1//EN" "http://www.w3.org/Graphics/SVG/1.1/DTD/svg11.dtd">
<svg version="1.1" baseProfile="full"
 xmlns="http://www.w3.org/2000/svg"
 xmlns:xlink="http://www.w3.org/1999/xlink"
 xmlns:ev="http://www.w3.org/2001/xml-events" 
  height="19px" 
  width="13px" 
>
<path fill="rgb( 97, 133, 168 )"
 d="M12.2349999999999,10.8720000000001 C10.8879999999999,12.192 9.18000000000006,12.9449999999999 7.4190000000001,13.1420000000001 L10.5070000000001,16.1690000000001 C10.9300000000001,16.5840000000001 10.9300000000001,17.2550000000001 10.5070000000001,17.6700000000001 C10.2950000000001,17.877 10.018,17.981 9.74099999999999,17.981 C9.46399999999994,17.981 9.18599999999992,17.877 8.97499999999991,17.6700000000001 L6.49199999999996,15.2349999999999 L4.00800000000004,17.6700000000001 C3.58500000000004,18.085 2.90000000000009,18.085 2.47700000000009,17.6700000000001 C2.05300000000011,17.2550000000001 2.05300000000011,16.5840000000001 2.47700000000009,16.1690000000001 L5.56500000000005,13.1420000000001 C3.80400000000009,12.9449999999999 2.096,12.192 0.74800000000005,10.8720000000001 C0.32500000000005,10.4559999999999 0.32500000000005,9.78400000000011 0.74800000000005,9.36899999999991 C1.17200000000003,8.95399999999995 1.85599999999999,8.95399999999995 2.27999999999997,9.36899999999991 C4.60300000000007,11.646 8.38300000000004,11.646 10.7049999999999,9.36899999999991 C11.1279999999999,8.95399999999995 11.8130000000001,8.95399999999995 12.2360000000001,9.36899999999991 C12.6590000000001,9.78400000000011 12.6590000000001,10.4570000000001 12.2349999999999,10.8720000000001 ZM6.49199999999996,9.48700000000008 C4.10200000000009,9.48700000000008 2.15900000000011,7.58300000000008 2.15900000000011,5.24000000000001 C2.15900000000011,2.89799999999991 4.10200000000009,0.99399999999991 6.49199999999996,0.99399999999991 C8.88100000000009,0.99399999999991 10.8240000000001,2.89799999999991 10.8240000000001,5.24000000000001 C10.8240000000001,7.58300000000008 8.88100000000009,9.48700000000008 6.49199999999996,9.48700000000008 ZM6.49199999999996,3.11699999999996 C5.29700000000003,3.11699999999996 4.32600000000002,4.06899999999996 4.32600000000002,5.24000000000001 C4.32600000000002,6.41100000000006 5.29700000000003,7.36400000000003 6.49199999999996,7.36400000000003 C7.68599999999992,7.36400000000003 8.6579999999999,6.41100000000006 8.6579999999999,5.24000000000001 C8.6579999999999,4.06899999999996 7.68599999999992,3.11699999999996 6.49199999999996,3.11699999999996 Z "/>
</svg>
