<?xml version="1.0" encoding="utf-8"?>
<!DOCTYPE svg PUBLIC "-//W3C//DTD SVG 1.1//EN" "http://www.w3.org/Graphics/SVG/1.1/DTD/svg11.dtd">
<svg version="1.1" baseProfile="full"
 xmlns="http://www.w3.org/2000/svg"
 xmlns:xlink="http://www.w3.org/1999/xlink"
 xmlns:ev="http://www.w3.org/2001/xml-events" 
  height="21px" 
  width="47px" 
>
<path fill="rgb( 214, 218, 226 )"
 d="M44.386,8.578 L44.194,8.578 C43.3109999999999,4.225 39.4760000000001,0.937 34.8920000000001,0.937 C31.511,0.937 28.556,2.739 26.874,5.426 C25.9000000000001,4.983 24.827,4.758 23.5,4.758 C22.173,4.758 21.1020000000001,4.983 20.126,5.426 C18.443,2.74 15.489,0.937 12.107,0.937 C7.52399999999989,0.937 3.6880000000001,4.225 2.80500000000006,8.578 L2.61400000000003,8.578 C1.56400000000008,8.578 0.71499999999992,9.434 0.71499999999992,10.489 C0.71499999999992,11.543 1.56400000000008,12.399 2.61400000000003,12.399 L2.80500000000006,12.399 C3.6880000000001,16.752 7.52399999999989,20.04 12.107,20.04 C17.3420000000001,20.04 21.6010000000001,15.756 21.6010000000001,10.489 C21.6010000000001,9.985 21.529,9.499 21.453,9.016 C22.002,8.704 22.5920000000001,8.578 23.5,8.578 C24.4190000000001,8.578 25.0039999999999,8.701 25.547,9.012 C25.471,9.498 25.3989999999999,9.983 25.3989999999999,10.489 C25.3989999999999,15.756 29.6569999999999,20.04 34.8920000000001,20.04 C39.4760000000001,20.04 43.3109999999999,16.752 44.194,12.399 L44.386,12.399 C45.4359999999999,12.399 46.2850000000001,11.543 46.2850000000001,10.489 C46.2850000000001,9.434 45.4359999999999,8.578 44.386,8.578 Z "/>
</svg>
