<?xml version="1.0" encoding="utf-8"?>
<!DOCTYPE svg PUBLIC "-//W3C//DTD SVG 1.1//EN" "http://www.w3.org/Graphics/SVG/1.1/DTD/svg11.dtd">
<svg version="1.1" baseProfile="full"
 xmlns="http://www.w3.org/2000/svg"
 xmlns:xlink="http://www.w3.org/1999/xlink"
 xmlns:ev="http://www.w3.org/2001/xml-events" 
  height="20px" 
  width="19px" 
>
<path fill="rgb( 214, 218, 226 )"
 d="M17.752,17.683 L13.432,13.364 C14.5029999999999,12.058 15.1479999999999,10.386 15.1479999999999,8.564 C15.1479999999999,4.384 11.7550000000001,0.993 7.57400000000007,0.993 C3.3889999999999,0.993 0,4.384 0,8.564 C0,12.744 3.3889999999999,16.135 7.57400000000007,16.135 C9.39699999999993,16.135 11.066,15.494 12.3720000000001,14.423 L16.693,18.738 C16.9860000000001,19.032 17.4590000000001,19.032 17.752,18.738 C18.046,18.449 18.046,17.972 17.752,17.683 ZM7.57400000000007,14.628 C4.22499999999991,14.628 1.50399999999991,11.908 1.50399999999991,8.564 C1.50399999999991,5.22 4.22499999999991,2.496 7.57400000000007,2.496 C10.9190000000001,2.496 13.644,5.22 13.644,8.564 C13.644,11.908 10.9190000000001,14.628 7.57400000000007,14.628 Z "/>
</svg>
