<?xml version="1.0" encoding="utf-8"?>
<!DOCTYPE svg PUBLIC "-//W3C//DTD SVG 1.1//EN" "http://www.w3.org/Graphics/SVG/1.1/DTD/svg11.dtd">
<svg version="1.1" baseProfile="full"
 xmlns="http://www.w3.org/2000/svg"
 xmlns:xlink="http://www.w3.org/1999/xlink"
 xmlns:ev="http://www.w3.org/2001/xml-events" 
  height="28px" 
  width="36px" 
>
<path fill="rgb( 255, 255, 255 )"
 d="M29.654,0.01199999999994 L3.72900000000001,0.01199999999994 C3.67699999999999,0.01199999999994 3.626,0.01999999999998 3.57599999999999,0.02800000000002 C1.77000000000001,0.18299999999999 0.06899999999999,1.79899999999998 0.06899999999999,3.76600000000008 C0.06899999999999,4.72299999999996 0.40100000000001,5.61899999999991 1.04599999999999,6.31600000000003 C1.06999999999999,6.34699999999998 1.09299999999999,6.37899999999991 1.12200000000001,6.4079999999999 C1.125,6.41200000000003 1.12799999999999,6.41699999999992 1.13200000000001,6.42100000000005 L1.13399999999999,6.4190000000001 C1.17099999999999,6.4559999999999 1.209,6.49199999999996 1.25200000000001,6.52299999999991 L14.661,17.393 C15.524,18.069 16.513,18.4079999999999 17.504,18.4079999999999 C18.496,18.4079999999999 19.491,18.068 20.36,17.386 L30.818,8.096 C31.228,7.76700000000005 31.294,7.16699999999992 30.964,6.75600000000009 C30.634,6.346 30.034,6.27999999999997 29.624,6.6099999999999 L19.176,15.8920000000001 C18.146,16.6990000000001 16.868,16.6990000000001 15.803,15.866 L2.49199999999999,5.06500000000005 C2.148,4.7170000000001 1.97499999999999,4.25600000000009 1.97499999999999,3.76600000000008 C1.97499999999999,2.74800000000005 2.58799999999999,1.9190000000001 3.85900000000001,1.9190000000001 L29.654,1.9190000000001 C32.035,1.9190000000001 34.041,3.85500000000002 34.041,6.2360000000001 L34.041,21.4390000000001 C34.041,23.8209999999999 32.035,25.9860000000001 29.654,25.9860000000001 L6.24600000000001,25.9860000000001 C3.86500000000001,25.9860000000001 1.952,23.8209999999999 1.952,21.4390000000001 L1.952,11.8389999999999 C1.952,11.3119999999999 1.52600000000001,10.886 0.999,10.886 C0.47200000000001,10.886 0.04499999999999,11.3119999999999 0.04499999999999,11.8389999999999 L0.04499999999999,21.4390000000001 C0.04499999999999,24.8720000000001 2.81399999999999,27.893 6.24600000000001,27.893 L29.654,27.893 C33.086,27.893 35.947,24.8720000000001 35.947,21.4390000000001 L35.947,6.2360000000001 C35.947,2.80400000000009 33.086,0.01199999999994 29.654,0.01199999999994 Z "/>
</svg>
