<?xml version="1.0" encoding="utf-8"?>
<!DOCTYPE svg PUBLIC "-//W3C//DTD SVG 1.1//EN" "http://www.w3.org/Graphics/SVG/1.1/DTD/svg11.dtd">
<svg version="1.1" baseProfile="full"
 xmlns="http://www.w3.org/2000/svg"
 xmlns:xlink="http://www.w3.org/1999/xlink"
 xmlns:ev="http://www.w3.org/2001/xml-events" 
  height="7px" 
  width="10px" 
>
<path fill="rgb( 251, 39, 20 )"
 d="M8.72199999999998,2.594 L5.9380000000001,5.379 C5.89400000000001,5.514 5.82799999999997,5.642 5.721,5.75 C5.44299999999998,6.027 5.03600000000006,6.092 4.69599999999991,5.948 C4.5440000000001,5.907 4.39799999999991,5.841 4.279,5.722 C4.20000000000005,5.643 4.14499999999998,5.549 4.09999999999991,5.453 L1.25,2.602 C0.88499999999999,2.237 0.88499999999999,1.645 1.25,1.279 C1.61500000000001,0.914 2.20800000000008,0.914 2.57300000000009,1.279 L4.99000000000001,3.696 L7.40699999999993,1.279 C7.77099999999996,0.916 8.35899999999992,0.916 8.72199999999998,1.279 C9.08600000000001,1.642 9.08600000000001,2.231 8.72199999999998,2.594 Z "/>
</svg>
