<?xml version="1.0" encoding="utf-8"?>
<!DOCTYPE svg PUBLIC "-//W3C//DTD SVG 1.1//EN" "http://www.w3.org/Graphics/SVG/1.1/DTD/svg11.dtd">
<svg version="1.1" baseProfile="full"
 xmlns="http://www.w3.org/2000/svg"
 xmlns:xlink="http://www.w3.org/1999/xlink"
 xmlns:ev="http://www.w3.org/2001/xml-events" 
  height="15px" 
  width="19px" 
>
<path fill="rgb( 214, 218, 226 )"
 d="M18.0050000000001,2.24499999999989 C17.3720000000001,2.52199999999993 16.6980000000001,2.70499999999993 15.9960000000001,2.7940000000001 C16.7190000000001,2.36400000000003 17.27,1.6880000000001 17.53,0.87300000000005 C16.856,1.27399999999989 16.1110000000001,1.55700000000002 15.318,1.71399999999994 C14.6780000000001,1.03500000000008 13.7660000000001,0.61500000000001 12.771,0.61500000000001 C10.8409999999999,0.61500000000001 9.28600000000006,2.17599999999993 9.28600000000006,4.08999999999992 C9.28600000000006,4.36599999999999 9.30999999999995,4.63000000000011 9.36699999999996,4.88200000000006 C6.46800000000007,4.74199999999996 3.90300000000002,3.35699999999997 2.17900000000009,1.24800000000005 C1.87799999999993,1.76800000000003 1.702,2.36400000000003 1.702,3.00500000000011 C1.702,4.20800000000008 2.32400000000007,5.27399999999989 3.25099999999998,5.89200000000005 C2.69100000000003,5.88100000000009 2.14100000000008,5.71900000000005 1.67499999999995,5.46399999999994 C1.67499999999995,5.47399999999993 1.67499999999995,5.48800000000006 1.67499999999995,5.50199999999995 C1.67499999999995,7.19100000000003 2.88400000000001,8.59300000000007 4.46900000000005,8.91599999999994 C4.18499999999995,8.99299999999994 3.87599999999998,9.02999999999997 3.55500000000006,9.02999999999997 C3.33200000000011,9.02999999999997 3.10599999999999,9.01800000000003 2.89499999999998,8.971 C3.34699999999998,10.347 4.62899999999991,11.3579999999999 6.15300000000002,11.3910000000001 C4.9670000000001,12.316 3.46000000000004,12.873 1.82899999999995,12.873 C1.54299999999989,12.873 1.26900000000001,12.8610000000001 0.99499999999989,12.826 C2.53999999999996,13.818 4.36999999999989,14.385 6.34500000000003,14.385 C12.7619999999999,14.385 16.27,9.08899999999994 16.27,4.49800000000005 C16.27,4.34400000000005 16.2650000000001,4.19599999999991 16.2570000000001,4.04899999999998 C16.9490000000001,3.55899999999997 17.5309999999999,2.94800000000009 18.0050000000001,2.24499999999989 Z "/>
</svg>
