<?xml version="1.0" encoding="utf-8"?>
<!DOCTYPE svg PUBLIC "-//W3C//DTD SVG 1.1//EN" "http://www.w3.org/Graphics/SVG/1.1/DTD/svg11.dtd">
<svg version="1.1" baseProfile="full"
 xmlns="http://www.w3.org/2000/svg"
 xmlns:xlink="http://www.w3.org/1999/xlink"
 xmlns:ev="http://www.w3.org/2001/xml-events" 
  height="15px" 
  width="15px" 
>
<path fill="rgb( 255, 255, 255 )"
 d="M2.80400000000009,6.745 C3.89200000000005,8.91899999999998 5.75900000000001,10.704 7.9369999999999,11.8680000000001 L9.64799999999991,10.1609999999999 C9.88100000000009,9.928 10.192,9.85000000000002 10.4259999999999,10.005 C11.2809999999999,10.316 12.2149999999999,10.471 13.2260000000001,10.471 C13.693,10.471 14.0039999999999,10.782 14.0039999999999,11.247 L14.0039999999999,13.886 C14.0039999999999,14.352 13.693,14.662 13.2260000000001,14.662 C5.91499999999996,14.662 0.00299999999993,8.76300000000003 0.00299999999993,1.46699999999998 C0.00299999999993,1.00099999999998 0.31500000000005,0.69000000000005 0.78099999999995,0.69000000000005 L3.50399999999991,0.69000000000005 C3.97000000000003,0.69000000000005 4.28099999999995,1.00099999999998 4.28099999999995,1.46699999999998 C4.28099999999995,2.39700000000005 4.4369999999999,3.32899999999995 4.74800000000005,4.26099999999997 C4.82600000000002,4.49300000000005 4.74800000000005,4.80399999999997 4.59300000000007,5.03700000000003 L2.80400000000009,6.745 Z "/>
</svg>
