<?xml version="1.0" encoding="utf-8"?>
<!DOCTYPE svg PUBLIC "-//W3C//DTD SVG 1.1//EN" "http://www.w3.org/Graphics/SVG/1.1/DTD/svg11.dtd">
<svg version="1.1" baseProfile="full"
 xmlns="http://www.w3.org/2000/svg"
 xmlns:xlink="http://www.w3.org/1999/xlink"
 xmlns:ev="http://www.w3.org/2001/xml-events" 
  height="17px" 
  width="17px" 
>
<path fill="rgb( 127, 156, 185 )"
 d="M13.7070000000001,9.70700000000011 C12.8779999999999,9.41399999999999 11.989,9.45700000000011 11.1980000000001,9.827 C10.817,10.0039999999999 10.499,10.27 10.2170000000001,10.5709999999999 L7.05400000000009,8.55899999999997 C6.78099999999995,8.38200000000006 6.43100000000004,8.44599999999991 6.22000000000003,8.67900000000009 C6.20499999999993,8.69100000000003 6.19499999999994,8.7059999999999 6.18100000000004,8.71900000000005 C6.17100000000005,8.73199999999997 6.15599999999995,8.73900000000003 6.14699999999993,8.75299999999993 C6.14599999999996,8.75600000000009 6.14599999999996,8.75900000000001 6.14400000000001,8.76099999999997 C6.10699999999997,8.80099999999993 6.06500000000005,8.83600000000001 6.03899999999999,8.88300000000004 L5.94599999999991,9.01900000000001 C5.7650000000001,9.30999999999995 5.50900000000001,9.55199999999991 5.20399999999995,9.7170000000001 C4.25,10.2270000000001 3.05199999999991,9.87799999999993 2.5329999999999,8.9369999999999 C2.0150000000001,7.99299999999994 2.36899999999991,6.80999999999995 3.32099999999991,6.298 C4.17800000000011,5.83799999999997 5.22800000000007,6.05600000000004 5.82199999999989,6.81799999999998 C5.87300000000005,6.88300000000004 5.93599999999992,6.93299999999999 6.00299999999993,6.97299999999996 C6.03199999999993,6.99000000000001 6.0630000000001,6.99800000000005 6.09400000000005,7.00999999999999 C6.15900000000011,7.03700000000003 6.22399999999993,7.05700000000002 6.2940000000001,7.0619999999999 C6.30999999999995,7.0630000000001 6.32500000000005,7.07400000000007 6.34099999999989,7.07400000000007 C6.36500000000001,7.07400000000007 6.38599999999997,7.05700000000002 6.41000000000008,7.05500000000006 C6.48000000000002,7.048 6.54600000000005,7.029 6.61200000000008,6.99900000000002 C6.63400000000001,6.98900000000003 6.66000000000008,6.99299999999994 6.68200000000002,6.98000000000002 L10.5650000000001,4.64799999999991 C10.5830000000001,4.63699999999994 10.5930000000001,4.61899999999991 10.6099999999999,4.60699999999997 C10.646,4.57999999999993 10.6769999999999,4.55199999999991 10.7059999999999,4.51900000000001 C10.7339999999999,4.48800000000006 10.76,4.4559999999999 10.7809999999999,4.42100000000005 C10.8019999999999,4.38499999999999 10.818,4.34999999999991 10.8320000000001,4.31099999999992 C10.846,4.27199999999993 10.8579999999999,4.23299999999995 10.864,4.19100000000003 C10.8699999999999,4.15100000000007 10.8710000000001,4.11200000000008 10.8699999999999,4.07099999999991 C10.8679999999999,4.02700000000004 10.8630000000001,3.9849999999999 10.8520000000001,3.94200000000001 C10.847,3.92200000000003 10.8510000000001,3.90200000000004 10.8440000000001,3.88100000000009 C10.7719999999999,3.67900000000009 10.7360000000001,3.46499999999992 10.7360000000001,3.24399999999991 C10.7360000000001,2.17200000000003 11.6199999999999,1.29899999999998 12.7059999999999,1.29899999999998 C13.7919999999999,1.29899999999998 14.675,2.17200000000003 14.675,3.24399999999991 C14.675,4.31700000000001 13.7919999999999,5.19000000000005 12.7059999999999,5.19000000000005 C12.3430000000001,5.19000000000005 12.049,5.48000000000002 12.049,5.83799999999997 C12.049,6.19699999999989 12.3430000000001,6.4860000000001 12.7059999999999,6.4860000000001 C14.5160000000001,6.4860000000001 15.9880000000001,5.03199999999993 15.9880000000001,3.24399999999991 C15.9880000000001,1.45700000000011 14.5160000000001,0.00199999999995 12.7059999999999,0.00199999999995 C10.895,0.00199999999995 9.423,1.45700000000011 9.423,3.24399999999991 C9.423,3.42800000000011 9.43900000000008,3.6099999999999 9.46900000000005,3.78800000000001 L6.46000000000004,5.59500000000003 C5.44299999999998,4.68499999999995 3.94599999999991,4.48900000000003 2.69499999999994,5.1579999999999 C1.10599999999999,6.01199999999994 0.5150000000001,7.98399999999992 1.37899999999991,9.55500000000006 C1.798,10.316 2.49099999999999,10.8710000000001 3.33200000000011,11.116 C3.6389999999999,11.2059999999999 3.95499999999993,11.252 4.26800000000003,11.252 C4.80799999999999,11.252 5.3420000000001,11.117 5.8309999999999,10.855 C6.22000000000003,10.646 6.54600000000005,10.3340000000001 6.84099999999989,9.96399999999994 L9.97600000000011,11.9580000000001 C10.086,12.029 10.2090000000001,12.0619999999999 10.3309999999999,12.0619999999999 C10.463,12.0619999999999 10.585,12.011 10.6949999999999,11.9359999999999 C10.787,11.885 10.8710000000001,11.819 10.931,11.7239999999999 C11.1310000000001,11.4090000000001 11.4159999999999,11.1579999999999 11.758,11 C12.741,10.5409999999999 13.9159999999999,10.9590000000001 14.3800000000001,11.9280000000001 C14.8430000000001,12.8979999999999 14.4200000000001,14.0599999999999 13.4380000000001,14.518 C12.46,14.9780000000001 11.2809999999999,14.5609999999999 10.817,13.5889999999999 C10.663,13.2639999999999 10.271,13.1300000000001 9.94299999999998,13.28 C9.61599999999999,13.433 9.47499999999991,13.819 9.63000000000011,14.143 C10.1900000000001,15.3130000000001 11.3720000000001,16.001 12.6030000000001,16.001 C13.0730000000001,16.001 13.548,15.9010000000001 14,15.691 C15.636,14.9290000000001 16.3399999999999,12.992 15.568,11.375 C15.193,10.5920000000001 14.5329999999999,9.99900000000002 13.7070000000001,9.70700000000011 Z "/>
</svg>
