<svg baseProfile="full" xmlns="http://www.w3.org/2000/svg" height="14" width="34"><path fill="#FFF" d="M24.9 13.024c-.407 0-.778-.245-.941-.627L20.518 4.85l-2.764 7.479a1.025 1.025 0 0 1-.958.695h-.009c-.429 0-.813-.27-.962-.678l-2.865-7.32-2.784 7.312a1.026 1.026 0 0 1-.944.686 1.022 1.022 0 0 1-.97-.648L5.989 6.994H.994V4.926h5.811c.418 0 .793.256.95.647L9.154 9.14l2.829-7.499c.145-.41.529-.684.96-.686h.004c.429 0 .813.27.961.677l2.852 7.346 2.691-7.328c.139-.404.508-.68.931-.695.423-.015.81.234.977.626l3.391 7.492 1.041-3.422c.134-.432.529-.725.977-.725l6.249.028v2.04h-5.403l-1.737 5.304a1.024 1.024 0 0 1-.924.725l-.053.001z"/></svg>