<svg baseProfile="full" xmlns="http://www.w3.org/2000/svg" height="22" width="37"><path fill="#FFF" d="M33.082 10.002v-5.98c0-.399-.223-.766-.583-.961-.359-.194-.683-.185-1.033.024L19.003 9.109V2.097h-.007c0-.609-.509-1.101-1.137-1.101h-3.898v2.032h3.034v6.081L5.564 2.866c-.351-.209-.665-.218-1.025-.024a1.097 1.097 0 0 0-.582.961v6.199H.993v1.994h2.964v5.917c0 .4.223.767.582.961.173.094.239.14.429.14.207 0 .414-.055.596-.163l11.431-5.967v7.043h.008c0 .608.508 1.101 1.136 1.101h3.866l-.093-2.089h-2.904v-6.055l12.458 5.967c.182.108.389.163.595.163.191 0 .266-.046.438-.14.36-.194.583-.561.583-.961v-5.917h2.924v-1.994h-2.924zm-2.157-4.01v4.01H22.01l8.915-4.01zM5.989 5.774l7.972 4.228H5.989V5.774zm0 10.544v-4.322h7.972l-7.972 4.322zm24.936 0l-8.857-4.322h8.857v4.322z"/></svg>