<svg xmlns="http://www.w3.org/2000/svg" xmlns:xlink="http://www.w3.org/1999/xlink" width="28" height="24" viewBox="0 0 28 24"><defs><path id="5ogja" d="M1355.04 861.9v18.29c0 .3-.15.58-.41.76a1 1 0 0 1-.88.12c-.08-.02-6.9-3.5-12.3-1.12-.26.11-.64.11-.9 0-5.43-2.38-12.23 1.1-12.3 1.12a1 1 0 0 1-.88-.12.92.92 0 0 1-.41-.76V861.9c0-.51.43-.93.97-.93h2.03v-2.23c0-.47.35-.86.82-.93.09-.01 1.59-.29 3.97.13 2.65.46 5.28 1.6 6.72 3.34a9 9 0 0 1 5.77-3.34c2.38-.42 3.84-.14 3.93-.13.47.07.82.46.82.93v2.23h2.08c.53 0 .97.42.97.93zm-17.09 15.08c-3.08-2.04-6.83-1.01-6.88-1a1 1 0 0 1-.78-.22.92.92 0 0 1-.33-.71v-12.04h-.99v15.93c.13-.05 3.01-1.96 8.98-1.96zm2.03-13.78c-2.15-3.5-6.13-3.69-8-3.6v14.44c.08.04 4.65-.37 8 2zm2.03 0v12.84c2.82-2.16 8-2 8-2v-14.45c-1.87-.07-5.86.13-8 3.62zm11 15.74v-15.93h-1.02v12.04c0 .27-.12.53-.33.7a1 1 0 0 1-.78.22c-.05 0-3.76-1.03-6.84 1 6.96 0 8.87 1.92 8.97 1.97z"/></defs><use fill="#fff" xlink:href="#5ogja" transform="translate(-1327 -857)"/></svg>