<svg id="Layer_1" xmlns="http://www.w3.org/2000/svg" viewBox="0 0 72 72"><path d="M67.9 18.7c-.7.7-1.5 1.1-2.4 1.1-.9 0-1.7-.4-2.4-1.1-.8-.8-1.2-1.7-1.2-2.6 0-.9.4-1.7 1.2-2.5.7-.7 1.5-1.1 2.4-1.1.9 0 1.7.4 2.5 1.2.8.8 1.2 1.6 1.2 2.5-.2.9-.5 1.7-1.3 2.5zm-4.3-4.5c-.5.5-.7 1.1-.7 1.7 0 .6.4 1.2.9 1.8.6.6 1.2.9 1.8.9.6 0 1.2-.2 1.7-.7.5-.5.7-1.1.7-1.7 0-.6-.4-1.2-1-1.8-.6-.6-1.2-.9-1.8-1-.6.1-1.1.3-1.6.8zm-.1 8.9l.8-.8-4.5-4.5c-.4-.4-1.3.2-1.3.2l5 5.1zm-5.9-6.7c.1-.1.2-.3.2-.5s-.1-.4-.2-.5c-.1-.1-.3-.2-.5-.2s-.4.1-.5.2c-.1.1-.2.3-.2.5s.1.4.2.5c.1.1.3.2.5.2s.4-.1.5-.2zm-5.4 9.1c-.4-.4-1.3.2-1.3.2l2.8 2.8 1.5 1.5-1.3 1.3c-.8.8-1.7.7-2.7-.4l-2.3-2.3c-.4-.4-1.3.2-1.3.2l2.9 2.9c1.4 1.4 2.7 1.5 3.8.4l2.3-2.3-2-2-2.3-2.3h-.1zm-7.5 15.8s-.3-1 0-1.1c.4-.2.7-.4 1-.7.7-.7.8-1.3.4-1.7-.1-.1-.3-.2-.4-.2h-.5c-.2 0-.4.1-.5.2l-.6.3c-.3.1-.6.2-.8.3-.2.1-.5.1-.7.1-.2 0-.4 0-.6-.1-.2-.1-.4-.2-.6-.4-.2-.2-.4-.5-.4-.8-.1-.3-.1-.6 0-.9l.3-.9c.2-.3.4-.5.6-.8.4-.4.9-.7 1.3-.9 0 0 .2.9 0 1.1-.3.1-.5.3-.8.6-.1.1-.3.3-.3.4-.1.2-.1.3-.2.4v.4c0 .1.1.2.2.3.1.1.3.2.4.2h.4c.1 0 .3-.1.5-.1l.6-.3c.3-.1.6-.2.8-.3.3-.1.5-.1.7-.1.2 0 .4 0 .7.1.2.1.4.2.6.4.2.2.4.5.5.8.1.3.1.6 0 .9-.1.3-.2.6-.4.9-.2.3-.4.6-.6.8-.5.6-1.1 1-1.6 1.1zm5.5-6.3c-.3.3-.5.4-.8.3-.3 0-.5-.2-.9-.5L45.8 32l.7-.7c.4-.4-.1-1.2-.1-1.2l-1.2 1.2-.6-.6c-.4-.4-1.3.3-1.3.3l4.9 4.9c.9.8 1.8.8 2.6 0 .3-.3.5-.6.6-.9-.2 0-1-.1-1.2 0z"/><path d="M51.9 13.9c-1.3-1.3-2.5-1.4-3.6-.4-.7.7-.9 1.6-.6 2.6-.4-.2-.8-.3-1.2-.2-.4.1-.8.3-1.2.6-.7.7-1 1.3-.8 2.3-.6-.4-1.4.2-1.4.2l4.9 4.9.8-.8-2.8-2.8c-.5-.5-.7-1-.8-1.5-.1-.5.1-.9.4-1.3.7-.7 1.6-.6 2.6.4l2.9 2.9.9-.8-2.8-2.8c-.4-.4-.7-.9-.8-1.5-.1-.5.1-1 .4-1.3.4-.4.8-.5 1.2-.5.4.1.9.4 1.4.9l5.8 5.8c-.8-.2-1.6 0-2.2.7-.7.7-1 1.5-.9 2.3.1.9.5 1.7 1.3 2.5.7.8 1.5 1.2 2.3 1.2.8.1 1.5-.2 2.1-.8.7-.7 2.4-2.5 2.5-2.5L51.9 13.9zm7.5 11.9c-.4.4-1 .6-1.5.6-.6-.1-1.2-.4-1.7-.9-.6-.6-1-1.2-1-1.8-.1-.6.1-1.2.6-1.6.4-.4.9-.6 1.4-.6.5 0 1 .2 1.4.6l.7.7 1.6 1.6c-.6.5-1 1-1.5 1.4zm-17.6-5.6c-.7.7-1 1.3-.8 2.3-.6-.4-1.4.2-1.4.2l4.9 4.9.8-.8-2.8-2.8c-.5-.5-.7-1-.8-1.5-.1-.5.1-.9.4-1.3.2-.2-.1-1.2-.1-1.2-.1 0-.2.1-.2.2zm-1 11c-.7.7-1.5 1.1-2.4 1.1-.9 0-1.7-.4-2.4-1.1-.8-.8-1.2-1.7-1.2-2.6 0-.9.4-1.7 1.2-2.5.7-.7 1.5-1.1 2.4-1.1.9 0 1.7.4 2.5 1.2.8.8 1.2 1.6 1.2 2.5-.2.9-.5 1.7-1.3 2.5zm-4.3-4.5c-.5.5-.7 1.1-.7 1.7 0 .6.4 1.2.9 1.8.6.6 1.2.9 1.8.9.6 0 1.2-.2 1.7-.7.5-.5.7-1.1.7-1.7 0-.6-.4-1.2-1-1.8-.6-.6-1.2-.9-1.8-1-.5.1-1.1.3-1.6.8z"/><path d="M48.8 49.2L34.1 34.5l.6-.6c.4-.4-.1-1.3-.1-1.3l-1.2 1.2-.8-.8c-.7-.7-.8-1.4-.2-2 .2-.2-.1-1.2-.1-1.2-.1 0-.2.1-.3.1-.1.1-.3.2-.4.4-.5.5-.7 1-.7 1.7 0 .6.3 1.1.8 1.7L48 50c.7.7.7 1.8 0 2.5l-5.4 5.4c-.7.7-1.8.7-2.5 0L26.4 44 12.5 57.9c-.7.7-1.8.7-2.5 0l-5.4-5.4c-.6-.7-.6-1.8.1-2.5l13.8-13.8L4.7 22.4c-.7-.7-.7-1.8 0-2.5l5.4-5.4c.7-.7 1.8-.7 2.5 0l13.8 13.8 14.1-14.1c.6-.6-.1-1.5-.1-1.5l-14 14-13-13c-1.1-1.1-3-1.2-4.1-.1L3.9 19c-1.1 1.1-1.1 3 .1 4.1l13 13-13 13c-1.1 1.2-1.2 3-.1 4.1l5.4 5.4c1.1 1.1 3 1.1 4.1-.1l13-13 13 13c1.1 1.1 3 1.2 4.1.1l5.4-5.4c1.1-1 1.1-2.9-.1-4z"/></svg>