<svg xmlns="http://www.w3.org/2000/svg" xmlns:xlink="http://www.w3.org/1999/xlink" width="49" height="33" viewBox="0 0 49 33"><defs><path id="j4pea" d="M460.01 3923.64h7.68c1.34 0 2.27.92 2.05 2.04l-2.59 13.41c-.22 1.13-1.5 2.05-2.84 2.05h-16.04c-1.35 0-2.28-.92-2.06-2.05l2.02-10.47c.98-5.05 3.1-9.68 9.13-13.81 2.75-1.95 6.78-3.55 10.49-4.78 1.3-.44 2.61 0 3 .99l-.2 2.47c.37 1.02-.4 2.29-1.76 2.73-4.96 1.65-8.32 4.85-8.88 7.42zm24.2 0h7.72c1.34 0 2.27.92 2.05 2.04l-2.59 13.41c-.22 1.13-1.5 2.05-2.84 2.05H472.5c-1.34 0-2.27-.92-2.05-2.05l2.02-10.47c.99-5.1 2.96-9.53 9.13-13.81 2.78-1.92 6.53-3.52 10.2-4.75 1.3-.44 2.6 0 2.98 1l-.19 2.43c.38 1.02-.4 2.29-1.75 2.73-4.96 1.65-8.07 4.85-8.63 7.42z"/></defs><use fill="#e6ecf2" xlink:href="#j4pea" transform="translate(-446 -3909)"/></svg>