<svg baseProfile="full" xmlns="http://www.w3.org/2000/svg" height="14" width="23"><path fill="#FFF" d="M19.519 6.284c.313-.419.562-.754.745-1.008 1.322-1.819 1.895-2.981 1.719-3.488l-.068-.119c-.046-.071-.165-.136-.356-.195-.191-.06-.435-.069-.733-.03l-3.301.024a.879.879 0 0 0-.229.006.643.643 0 0 0-.149.035l-.057.029-.046.036a.523.523 0 0 0-.126.125.799.799 0 0 0-.115.208 19.672 19.672 0 0 1-1.226 2.669c-.283.49-.543.916-.78 1.275-.236.36-.435.625-.596.795-.16.17-.305.307-.435.409-.13.103-.229.147-.298.131a7.025 7.025 0 0 1-.195-.048.766.766 0 0 1-.258-.29 1.359 1.359 0 0 1-.132-.463 5.564 5.564 0 0 1-.04-.481 9.755 9.755 0 0 1 .006-.569c.008-.246.012-.411.012-.498 0-.301.005-.627.017-.979.011-.351.021-.631.029-.837.007-.204.011-.422.011-.652 0-.229-.014-.409-.04-.54a1.93 1.93 0 0 0-.121-.38.64.64 0 0 0-.235-.284 1.337 1.337 0 0 0-.384-.161C11.733.91 11.217.859 10.591.85 9.17.836 8.257.93 7.852 1.136a1.539 1.539 0 0 0-.436.356c-.137.174-.157.269-.057.284.459.071.783.242.974.51l.069.142c.053.103.107.286.16.547.054.261.088.549.104.865a9.605 9.605 0 0 1 0 1.484c-.039.411-.075.732-.109.96a1.987 1.987 0 0 1-.293.819.212.212 0 0 1-.057.059.836.836 0 0 1-.309.059c-.107 0-.237-.055-.39-.166a2.732 2.732 0 0 1-.475-.457 5.938 5.938 0 0 1-.556-.812c-.207-.348-.421-.76-.642-1.234l-.184-.345c-.114-.22-.271-.543-.47-.966a19.38 19.38 0 0 1-.527-1.228.769.769 0 0 0-.275-.379l-.057-.036a1.146 1.146 0 0 0-.447-.178l-3.14.024c-.321 0-.539.075-.654.225l-.046.071a.412.412 0 0 0-.034.19c0 .088.023.194.069.32a39.227 39.227 0 0 0 1.496 3.227A35.974 35.974 0 0 0 2.97 7.981c.397.633.802 1.229 1.215 1.791.412.562.685.921.819 1.08.134.158.239.277.315.356l.287.285c.183.189.453.416.808.682.355.265.748.526 1.18.783.432.257.934.466 1.507.629a5.064 5.064 0 0 0 1.674.196h1.318c.267-.024.47-.111.607-.262l.046-.058a.866.866 0 0 0 .086-.221c.027-.098.04-.207.04-.325-.008-.34.018-.647.075-.919.057-.273.122-.479.194-.618.073-.138.155-.255.247-.35a.947.947 0 0 1 .195-.171.783.783 0 0 1 .091-.042c.184-.063.4-.002.648.183.248.186.482.416.699.689.218.273.48.579.785.919.306.341.573.593.803.759l.229.143c.153.095.351.182.596.261.244.079.458.099.642.06l2.934-.048c.29 0 .516-.05.676-.149.161-.098.256-.207.287-.326a.95.95 0 0 0 .005-.403 1.497 1.497 0 0 0-.08-.314 1.432 1.432 0 0 0-.075-.148c-.382-.712-1.111-1.586-2.189-2.622l-.023-.024-.011-.012-.011-.012h-.012c-.489-.482-.798-.806-.928-.972-.237-.316-.291-.637-.16-.962.091-.245.434-.764 1.03-1.555z"/></svg>