<svg baseProfile="full" xmlns="http://www.w3.org/2000/svg" height="20" width="20"><path fill="#FFF" d="M14.666 19.03H6.241c-2.903 0-5.266-2.357-5.266-5.255V5.273C.975 2.375 3.338.018 6.241.018h8.425c2.903 0 5.265 2.357 5.265 5.255v8.502c0 2.898-2.362 5.255-5.265 5.255zm3.288-13.432c0-1.966-1.603-3.596-3.573-3.596H6.563c-1.97 0-3.572 1.63-3.572 3.596v7.851a3.572 3.572 0 0 0 3.572 3.566h7.818a3.574 3.574 0 0 0 3.573-3.565V5.598zm-2.44.08a1.244 1.244 0 0 1-1.242-1.239A1.24 1.24 0 0 1 15.514 3.2a1.242 1.242 0 0 1 .878 2.115c-.232.23-.551.363-.878.363zm.435 3.832c0 3.023-2.465 5.484-5.495 5.484-3.03 0-5.496-2.461-5.496-5.484 0-3.025 2.466-5.485 5.496-5.485 3.03 0 5.495 2.46 5.495 5.485zm-5.495-3.502c-1.987 0-3.603 1.55-3.603 3.533 0 1.983 1.616 3.502 3.603 3.502 1.986 0 3.571-1.551 3.571-3.533 0-1.983-1.585-3.502-3.571-3.502z"/></svg>