<svg baseProfile="full" xmlns="http://www.w3.org/2000/svg" height="19" width="29"><path fill="#FB2714" d="M28.288 3.148c.212.577-.227 1.286-.994 1.537-2.814.927-4.579 2.73-4.894 4.173h4.375c.764 0 1.288.518 1.165 1.152l-1.469 7.547c-.123.633-.849 1.152-1.613 1.152H15.76c-.764 0-1.288-.519-1.164-1.152l1.147-5.896c.559-2.872 1.677-5.364 5.178-7.773 1.575-1.075 3.699-1.978 5.778-2.668.743-.25 1.481 0 1.697.556l-.108 1.372zM13.712 4.685c-2.815.927-4.721 2.73-5.036 4.173h4.352c.764 0 1.288.518 1.165 1.152l-1.469 7.547c-.123.633-.849 1.152-1.613 1.152H2.014c-.764 0-1.289-.519-1.165-1.152l1.147-5.896c.552-2.839 1.756-5.448 5.178-7.773C8.73 2.793 11.017 1.891 13.12 1.2c.743-.249 1.481 0 1.697.557l-.112 1.391c.212.577-.227 1.286-.993 1.537z"/></svg>