<svg baseProfile="full" xmlns="http://www.w3.org/2000/svg" height="25" width="30"><path fill="#FFF" d="M28.066 3.969h-2.071V1.736a.947.947 0 0 0-.828-.924c-.083-.011-1.543-.287-3.923.129-2.653.464-4.339 1.608-5.774 3.338-1.435-1.73-4.067-2.874-6.72-3.338C6.37.525 4.867.801 4.784.812a.947.947 0 0 0-.827.924v2.233H1.928c-.536 0-.971.418-.971.933v18.287c0 .302.152.585.408.76a.996.996 0 0 0 .882.12c.073-.024 6.878-3.496 12.304-1.117.256.113.636.113.892 0 5.411-2.372 12.231 1.094 12.304 1.117a1 1 0 0 0 .882-.12.92.92 0 0 0 .408-.76V4.902c0-.515-.435-.933-.971-.933zM2.973 21.94V6.008h.984V18.05c0 .271.123.529.337.706a.997.997 0 0 0 .776.217c.054-.007 3.8-1.028 6.882 1.005-5.97 0-8.85 1.917-8.979 1.962zm11.01-2.899c-3.352-2.367-7.925-1.965-7.998-2.003V2.593c1.866-.081 5.848.111 7.998 3.613v12.835zm2.028-12.835c2.142-3.487 6.131-3.688 7.998-3.611v14.443s-5.178-.155-7.998 2.003V6.206zm2.028 13.772c3.083-2.034 6.788-1.013 6.841-1.005a.996.996 0 0 0 .777-.216.918.918 0 0 0 .338-.707V6.008h1.014V21.94c-.095-.045-2.014-1.975-8.97-1.962z"/></svg>