<svg baseProfile="full" xmlns="http://www.w3.org/2000/svg" height="11" width="21"><path fill="#D6DAE2" d="M19.554 9.654c-.053-.083-.376-.751-1.932-2.123-1.628-1.437-1.41-1.204.552-3.689 1.195-1.513 1.672-2.437 1.523-2.833-.142-.376-1.021-.277-1.021-.277l-2.922.017s-.216-.028-.378.063c-.157.09-.257.298-.257.298s-.464 1.172-1.081 2.167c-1.302 2.102-1.823 2.212-2.036 2.082-.494-.304-.371-1.222-.371-1.874 0-2.036.325-2.886-.633-3.105-.318-.073-.552-.121-1.365-.129C8.591.24 7.707.254 7.207.486c-.333.155-.589.501-.432.52.193.024.631.112.863.412.3.388.289 1.258.289 1.258s.173 2.398-.402 2.696c-.395.204-.936-.213-2.097-2.12-.594-.976-1.044-2.056-1.044-2.056S4.298.995 4.143.887c-.187-.13-.449-.172-.449-.172L.915.731S.498.743.345.915c-.136.154-.011.47-.011.47S2.51 6.222 4.972 8.66c2.26 2.236 4.824 2.089 4.824 2.089h1.162s.351-.037.53-.221c.165-.168.159-.485.159-.485s-.023-1.482.702-1.7c.713-.215 1.629 1.432 2.601 2.066.734.48 1.292.375 1.292.375l2.597-.035s1.359-.08.715-1.095z"/></svg>