<svg baseProfile="full" xmlns="http://www.w3.org/2000/svg" height="18" width="19"><path fill="#FFF" d="M17.962 1.511l-5.669 13.537a.614.614 0 0 1-.548.362h-.021c-.274-.021-.485-.181-.548-.403L9.258 9.094 3.041 7.263c-.232-.08-.421-.301-.421-.522a.59.59 0 0 1 .379-.543L17.182.767a.586.586 0 0 1 .632.14c.19.161.232.403.148.604zM3.952 9.964L.838 12.937l-.834-.796 3.114-2.973.834.796zm1.689 3.198l-3.115 2.972-.834-.796 3.114-2.973.835.797zm3.344 1.598L5.87 17.733l-.834-.797 3.114-2.972.835.796z"/></svg>