<svg baseProfile="full" xmlns="http://www.w3.org/2000/svg" height="19" width="13"><path fill="#6185A8" d="M12.235 10.872a8.147 8.147 0 0 1-4.816 2.27l3.088 3.027a1.046 1.046 0 0 1 0 1.501 1.094 1.094 0 0 1-.766.311c-.277 0-.555-.104-.766-.311l-2.483-2.435-2.484 2.435a1.097 1.097 0 0 1-1.531 0 1.045 1.045 0 0 1 0-1.501l3.088-3.027a8.152 8.152 0 0 1-4.817-2.27 1.049 1.049 0 0 1 0-1.503 1.098 1.098 0 0 1 1.532 0c2.323 2.277 6.103 2.277 8.425 0a1.097 1.097 0 0 1 1.531 0 1.048 1.048 0 0 1-.001 1.503zM6.492 9.487c-2.39 0-4.333-1.904-4.333-4.247 0-2.342 1.943-4.246 4.333-4.246 2.389 0 4.332 1.904 4.332 4.246 0 2.343-1.943 4.247-4.332 4.247zm0-6.37c-1.195 0-2.166.952-2.166 2.123 0 1.171.971 2.124 2.166 2.124 1.194 0 2.166-.953 2.166-2.124 0-1.171-.972-2.123-2.166-2.123z"/></svg>