<svg baseProfile="full" xmlns="http://www.w3.org/2000/svg" height="21" width="47"><path fill="#D6DAE2" d="M44.386 8.578h-.192C43.311 4.225 39.476.937 34.892.937c-3.381 0-6.336 1.802-8.018 4.489-.974-.443-2.047-.668-3.374-.668s-2.398.225-3.374.668C18.443 2.74 15.489.937 12.107.937c-4.583 0-8.419 3.288-9.302 7.641h-.191c-1.05 0-1.899.856-1.899 1.911 0 1.054.849 1.91 1.899 1.91h.191c.883 4.353 4.719 7.641 9.302 7.641 5.235 0 9.494-4.284 9.494-9.551 0-.504-.072-.99-.148-1.473.549-.312 1.139-.438 2.047-.438.919 0 1.504.123 2.047.434-.076.486-.148.971-.148 1.477 0 5.267 4.258 9.551 9.493 9.551 4.584 0 8.419-3.288 9.302-7.641h.192c1.05 0 1.899-.856 1.899-1.91a1.905 1.905 0 0 0-1.899-1.911z"/></svg>