<svg baseProfile="full" xmlns="http://www.w3.org/2000/svg" height="28" width="36"><path fill="#FFF" d="M29.654.012H3.729a.968.968 0 0 0-.153.016C1.77.183.069 1.799.069 3.766c0 .957.332 1.853.977 2.55.024.031.047.063.076.092l.01.013.002-.002a.975.975 0 0 0 .118.104l13.409 10.87c.863.676 1.852 1.015 2.843 1.015.992 0 1.987-.34 2.856-1.022l10.458-9.29a.953.953 0 1 0-1.194-1.486l-10.448 9.282c-1.03.807-2.308.807-3.373-.026L2.492 5.065a1.82 1.82 0 0 1-.517-1.299c0-1.018.613-1.847 1.884-1.847h25.795c2.381 0 4.387 1.936 4.387 4.317v15.203c0 2.382-2.006 4.547-4.387 4.547H6.246c-2.381 0-4.294-2.165-4.294-4.547v-9.6a.953.953 0 1 0-1.907 0v9.6c0 3.433 2.769 6.454 6.201 6.454h23.408c3.432 0 6.293-3.021 6.293-6.454V6.236c0-3.432-2.861-6.224-6.293-6.224z"/></svg>