<svg baseProfile="full" xmlns="http://www.w3.org/2000/svg" height="15" width="19"><path fill="#D6DAE2" d="M18.005 2.245a7.283 7.283 0 0 1-2.009.549A3.459 3.459 0 0 0 17.53.873a6.955 6.955 0 0 1-2.212.841A3.5 3.5 0 0 0 12.771.615 3.48 3.48 0 0 0 9.286 4.09c0 .276.024.54.081.792a9.88 9.88 0 0 1-7.188-3.634 3.489 3.489 0 0 0-.477 1.757c0 1.203.622 2.269 1.549 2.887a3.466 3.466 0 0 1-1.576-.428v.038a3.493 3.493 0 0 0 2.794 3.414 3.505 3.505 0 0 1-.914.114c-.223 0-.449-.012-.66-.059a3.519 3.519 0 0 0 3.258 2.42 7.021 7.021 0 0 1-4.324 1.482c-.286 0-.56-.012-.834-.047a9.848 9.848 0 0 0 5.35 1.559c6.417 0 9.925-5.296 9.925-9.887 0-.154-.005-.302-.013-.449a6.958 6.958 0 0 0 1.748-1.804z"/></svg>