<svg baseProfile="full" xmlns="http://www.w3.org/2000/svg" height="17" width="17"><path fill="#7F9CB9" d="M13.707 9.707a3.292 3.292 0 0 0-2.509.12c-.381.177-.699.443-.981.744L7.054 8.559a.648.648 0 0 0-.834.12c-.015.012-.025.027-.039.04-.01.013-.025.02-.034.034-.001.003-.001.006-.003.008-.037.04-.079.075-.105.122l-.093.136a1.99 1.99 0 0 1-.742.698 1.988 1.988 0 0 1-2.671-.78 1.938 1.938 0 0 1 .788-2.639 1.975 1.975 0 0 1 2.501.52.65.65 0 0 0 .181.155c.029.017.06.025.091.037.065.027.13.047.2.052.016.001.031.012.047.012.024 0 .045-.017.069-.019a.635.635 0 0 0 .202-.056c.022-.01.048-.006.07-.019l3.883-2.332c.018-.011.028-.029.045-.041a.62.62 0 0 0 .096-.088.637.637 0 0 0 .075-.098.645.645 0 0 0 .071-.479c-.005-.02-.001-.04-.008-.061a1.89 1.89 0 0 1-.108-.637c0-1.072.884-1.945 1.97-1.945 1.086 0 1.969.873 1.969 1.945 0 1.073-.883 1.946-1.969 1.946a.652.652 0 0 0-.657.648c0 .359.294.648.657.648 1.81 0 3.282-1.454 3.282-3.242 0-1.787-1.472-3.242-3.282-3.242-1.811 0-3.283 1.455-3.283 3.242 0 .184.016.366.046.544L6.46 5.595a3.3 3.3 0 0 0-3.765-.437 3.227 3.227 0 0 0-1.316 4.397 3.251 3.251 0 0 0 1.953 1.561c.307.09.623.136.936.136.54 0 1.074-.135 1.563-.397.389-.209.715-.521 1.01-.891l3.135 1.994c.11.071.233.104.355.104a.648.648 0 0 0 .364-.126.63.63 0 0 0 .236-.212 1.982 1.982 0 0 1 3.449.204c.463.97.04 2.132-.942 2.59a1.98 1.98 0 0 1-2.621-.929.661.661 0 0 0-.874-.309.645.645 0 0 0-.313.863 3.292 3.292 0 0 0 2.973 1.858c.47 0 .945-.1 1.397-.31 1.636-.762 2.34-2.699 1.568-4.316a3.248 3.248 0 0 0-1.861-1.668z"/></svg>